<?xml version="1.0" encoding="utf-8"?>
<!-- Generator: Adobe Illustrator 25.1.0, SVG Export Plug-In . SVG Version: 6.00 Build 0)  -->
<svg version="1.1" id="Capa_1" xmlns="http://www.w3.org/2000/svg" xmlns:xlink="http://www.w3.org/1999/xlink" x="0px" y="0px"
	 viewBox="0 0 841.89 595.28" style="enable-background:new 0 0 841.89 595.28;" xml:space="preserve">
<style type="text/css">
	.st0{fill:#3AABF5;}
</style>
<g>
	<g>
		<path class="st0" d="M221.4,256.93c3.58,0.19,6.84,0.55,9.78,1.1c2.94,0.55,5.3,1.52,7.09,2.89s2.89,3.31,3.31,5.79
			c0.41,2.48-0.12,5.79-1.58,9.92c-1.93,3.77-3.31,6.25-4.13,7.44c-0.64,1.1-3.17,4.85-7.58,11.23
			c-4.41,6.39-10.79,15.45-19.15,27.21c1.1-0.09,2.94-0.28,5.51-0.55c2.57-0.28,5.28-0.46,8.13-0.55c2.85-0.09,5.56-0.02,8.13,0.21
			c2.57,0.23,4.45,0.8,5.65,1.72c2.29,1.93,3.58,3.91,3.86,5.92c0.28,2.02,0.09,4.36-0.55,7.03c-0.74,2.94-2.07,4.8-4,5.58
			c-1.93,0.78-4.13,1.4-6.61,1.86c-4.68,0.92-9.32,1.47-13.91,1.65c-4.59,0.19-9.23,0.28-13.91,0.28c-2.02,0-4.27-0.02-6.75-0.07
			c-2.48-0.04-4.85-0.39-7.09-1.03c-2.25-0.64-4.23-1.7-5.92-3.17c-1.7-1.47-2.78-3.63-3.24-6.47c0-1.56,0.14-3.17,0.41-4.82
			c0.28-1.38,1.01-3.33,2.2-5.86c1.19-2.53,2.55-5.14,4.06-7.85c1.52-2.71,3.03-5.24,4.55-7.58c1.52-2.34,2.64-4.06,3.38-5.17
			c2.94-4.13,5.97-8.13,9.09-11.99c3.12-3.86,6.29-7.71,9.51-11.57c-0.55,0.09-1.1,0.19-1.65,0.28c-0.55,0.09-1.1,0.23-1.65,0.41
			c-2.39,0.37-4.78,0.62-7.16,0.76c-2.39,0.14-4.78,0.12-7.16-0.07c-4.87-0.64-8.45-1.88-10.75-3.72c-1.65-1.29-2.57-3.53-2.76-6.75
			c0-2.02,0.5-4,1.52-5.92c1.38-2.2,3.17-3.81,5.37-4.82c1.74-0.92,4.15-1.63,7.23-2.14c3.08-0.5,6.31-0.87,9.71-1.1
			c3.4-0.23,6.66-0.32,9.78-0.28C217.22,256.77,219.65,256.84,221.4,256.93z"/>
		<path class="st0" d="M331.74,300.05c0.46,4.59,0.71,9.14,0.76,13.64c0.05,4.5-0.02,9.05-0.21,13.64c0.28,5.51-0.6,9.97-2.62,13.36
			c-1.56,2.75-5.05,4.32-10.47,4.68c-3.12,0.28-5.79-0.41-7.99-2.07c-1.1-1.29-2.04-3.53-2.82-6.75c-0.78-3.21-1.4-6.66-1.86-10.33
			c-0.46-3.67-0.81-7.14-1.03-10.4c-0.23-3.26-0.39-5.58-0.48-6.96c-0.28-2.76-0.53-5.76-0.76-9.02c-0.23-3.26-0.85-6.2-1.86-8.82
			c-1.01-2.62-2.6-4.66-4.75-6.13c-2.16-1.47-5.26-1.84-9.3-1.1c-1.38,0.37-2.48,1.15-3.31,2.34c-0.74,0.83-1.24,2.43-1.52,4.82
			c-0.28,2.39-0.44,4.94-0.48,7.65c-0.05,2.71-0.02,5.26,0.07,7.65c0.09,2.39,0.14,4,0.14,4.82v10.19c0,1.1-0.05,2.69-0.14,4.75
			c-0.09,2.07-0.32,4.2-0.69,6.41c-0.37,2.2-0.94,4.27-1.72,6.2c-0.78,1.93-1.91,3.31-3.38,4.13c-1.84,1.01-3.65,1.58-5.44,1.72
			c-1.79,0.14-3.74-0.07-5.85-0.62c-2.39-0.55-4.02-1.51-4.89-2.89c-0.87-1.38-1.54-3.12-2-5.24c-1.47-8.72-2.41-17.38-2.82-25.97
			c-0.41-8.59-0.53-17.29-0.34-26.11c0-2.11,0.05-4.27,0.14-6.47c0.09-2.2,0.23-4.41,0.41-6.61c0.09-1.1,0.11-2.18,0.07-3.24
			c-0.05-1.05,0.02-2.09,0.21-3.1c0.18-1.01,0.5-2,0.96-2.96c0.46-0.96,1.19-1.86,2.2-2.69c0.73-0.64,1.65-1.15,2.75-1.52
			c1.1-0.37,2.23-0.64,3.38-0.83c1.15-0.18,2.29-0.28,3.44-0.28c1.15,0,2.14,0.09,2.96,0.28c2.76,0.64,4.62,1.72,5.58,3.24
			c0.96,1.52,1.54,3.56,1.72,6.13c1.28-0.73,2.62-1.42,4-2.07c1.38-0.64,2.85-1.19,4.41-1.65c12.4-3.67,23.56-2.25,33.48,4.27
			c3.21,2.2,5.56,6.25,7.03,12.12c0.64,3.67,1.22,7.3,1.72,10.88C330.94,292.75,331.38,296.38,331.74,300.05z"/>
		<path class="st0" d="M428.73,261.89c0.55,1.93,0.94,4.78,1.17,8.54c0.23,3.77,0.41,7.69,0.55,11.78
			c0.14,4.09,0.18,8.01,0.14,11.78c-0.05,3.77-0.07,6.61-0.07,8.54c-0.09,3.4-0.16,6.77-0.21,10.12c-0.05,3.35-0.16,6.73-0.34,10.13
			c-0.09,1.38-0.16,2.94-0.21,4.68c-0.05,1.75-0.21,3.49-0.48,5.24c-0.28,1.75-0.76,3.42-1.45,5.03c-0.69,1.61-1.72,2.96-3.1,4.06
			c-1.65,1.38-3.17,2.07-4.55,2.07c-0.37,0.09-0.76,0.14-1.17,0.14c-0.41,0-0.94,0.09-1.58,0.28c-2.39,0.28-4.46-0.05-6.2-0.96
			c-1.75-1.01-3.08-2.39-4-4.13c-1.56-2.85-2.2-7.21-1.93-13.09c-1.29,2.48-2.62,4.92-4,7.3c-1.38,2.39-3.22,4.5-5.51,6.34
			c-3.49,2.67-7.56,4.32-12.19,4.96c-4.64,0.64-9.12,0.34-13.43-0.9c-4.32-1.24-8.18-3.35-11.57-6.34c-3.4-2.98-5.6-6.77-6.61-11.37
			c-1.56-6.06-2.2-13.73-1.93-23.01c0.28-9.46,0.69-16.9,1.24-22.32c0.18-2.76,0.5-5.26,0.96-7.51c0.46-2.25,1.01-4.29,1.65-6.13
			c1.1-3.67,3.21-6.38,6.34-8.13c1.19-0.64,2.57-1.12,4.13-1.45c1.56-0.32,3.1-0.41,4.62-0.28c1.52,0.14,2.98,0.48,4.41,1.03
			c1.42,0.55,2.64,1.38,3.65,2.48c0.92,1.01,1.52,2.3,1.79,3.86c0.28,1.56,0.39,3.19,0.34,4.89c-0.05,1.7-0.19,3.35-0.41,4.96
			c-0.23,1.61-0.39,2.87-0.48,3.79c-0.46,3.03-1.03,5.99-1.72,8.89c-0.69,2.89-1.22,5.79-1.58,8.68c-0.37,2.89-0.51,5.83-0.41,8.82
			c0.09,2.99,0.69,6.08,1.79,9.3c0.46,1.1,0.96,2.11,1.52,3.03c0.55,0.92,1.47,1.65,2.76,2.2c1.28,0.46,2.52,0.37,3.72-0.28
			c1.84-0.92,3.35-2.29,4.55-4.13c1.65-2.48,2.91-5,3.79-7.58c0.87-2.57,1.56-5.19,2.07-7.85c0.5-2.66,0.94-5.3,1.31-7.92
			c0.37-2.62,0.87-5.26,1.52-7.92c0.37-2.02,0.69-3.76,0.96-5.24c0.28-1.47,0.55-2.71,0.83-3.72c0.83-4.32,2.11-8.27,3.86-11.85
			c1.38-3.12,4.77-5.24,10.19-6.34c2.57-0.64,6.11-0.46,10.61,0.55C426.34,257.85,427.9,259.5,428.73,261.89z"/>
		<path class="st0" d="M508.63,269.88c0,0.83-0.05,1.68-0.14,2.55c-0.09,0.87-0.37,1.77-0.83,2.69c-0.46,1.01-1.22,1.95-2.27,2.82
			c-1.06,0.87-2.78,1.63-5.17,2.27c-2.02,0.46-4.04,0.76-6.06,0.9c-2.02,0.14-4.06,0.23-6.13,0.28c-2.07,0.05-4.11,0.12-6.13,0.21
			c-2.02,0.09-4.04,0.32-6.06,0.69v8.96c1.19-0.28,2.73-0.57,4.62-0.9c1.88-0.32,3.83-0.53,5.86-0.62c2.02-0.09,3.97-0.02,5.85,0.21
			c1.88,0.23,3.42,0.71,4.62,1.45c1.47,1.01,2.5,2.34,3.1,4s0.83,3.42,0.69,5.3c-0.14,1.88-0.62,3.67-1.45,5.37
			c-0.83,1.7-1.88,3.01-3.17,3.93c-3.49,2.02-9.6,3.58-18.32,4.68c0.64,6.98,0.92,13.36,0.83,19.15c-0.19,5.7-1.93,9.19-5.24,10.47
			c-3.12,1.19-6.06,1.7-8.82,1.51c-2.76-0.28-4.87-0.83-6.34-1.65c-2.11-1.19-3.58-3.26-4.41-6.2c-0.46-1.56-1.47-10.51-3.03-26.86
			c-0.19-4.04-0.44-8.01-0.76-11.92c-0.32-3.9-0.53-7.87-0.62-11.92c-0.19-4.13,0.02-8.01,0.62-11.64c0.6-3.63,2.32-7.19,5.17-10.68
			c2.94-3.12,6.52-5.51,10.75-7.16c4.22-1.65,8.59-2.57,13.09-2.76c4.5-0.18,8.96,0.28,13.36,1.38c4.41,1.1,8.31,2.76,11.71,4.96
			c1.74,1.19,2.94,2.43,3.58,3.72c0.46,0.74,0.76,1.52,0.9,2.34C508.56,268.22,508.63,269.05,508.63,269.88z"/>
		<path class="st0" d="M578.2,269.88c0,0.83-0.05,1.68-0.14,2.55c-0.09,0.87-0.37,1.77-0.83,2.69c-0.46,1.01-1.22,1.95-2.27,2.82
			c-1.06,0.87-2.78,1.63-5.17,2.27c-2.02,0.46-4.04,0.76-6.06,0.9c-2.02,0.14-4.06,0.23-6.13,0.28c-2.07,0.05-4.11,0.12-6.13,0.21
			c-2.02,0.09-4.04,0.32-6.06,0.69v8.96c1.19-0.28,2.73-0.57,4.62-0.9c1.88-0.32,3.83-0.53,5.85-0.62c2.02-0.09,3.97-0.02,5.85,0.21
			c1.88,0.23,3.42,0.71,4.62,1.45c1.47,1.01,2.5,2.34,3.1,4c0.6,1.65,0.83,3.42,0.69,5.3c-0.14,1.88-0.62,3.67-1.45,5.37
			c-0.83,1.7-1.88,3.01-3.17,3.93c-3.49,2.02-9.6,3.58-18.32,4.68c0.64,6.98,0.92,13.36,0.83,19.15c-0.19,5.7-1.93,9.19-5.24,10.47
			c-3.12,1.19-6.06,1.7-8.82,1.51c-2.75-0.28-4.87-0.83-6.34-1.65c-2.11-1.19-3.58-3.26-4.41-6.2c-0.46-1.56-1.47-10.51-3.03-26.86
			c-0.19-4.04-0.44-8.01-0.76-11.92c-0.32-3.9-0.53-7.87-0.62-11.92c-0.18-4.13,0.02-8.01,0.62-11.64c0.6-3.63,2.32-7.19,5.17-10.68
			c2.94-3.12,6.52-5.51,10.75-7.16c4.22-1.65,8.59-2.57,13.09-2.76c4.5-0.18,8.96,0.28,13.36,1.38c4.41,1.1,8.31,2.76,11.71,4.96
			c1.74,1.19,2.94,2.43,3.58,3.72c0.46,0.74,0.76,1.52,0.9,2.34C578.13,268.22,578.2,269.05,578.2,269.88z"/>
		<path class="st0" d="M650.66,259.27c1.74,2.39,3.21,5.24,4.41,8.54c1.19,3.31,2.14,6.75,2.82,10.33s1.15,7.12,1.38,10.61
			c0.23,3.49,0.25,6.61,0.07,9.37c-0.46,6.89-1.33,13.55-2.62,19.98c-1.29,6.43-3.58,12.81-6.89,19.15
			c-2.48,3.4-5.01,5.92-7.58,7.58c-2.57,1.65-5.28,2.71-8.13,3.17c-2.85,0.46-5.83,0.46-8.95,0c-3.12-0.46-6.43-1.1-9.92-1.93
			c-2.57-0.55-5.44-1.47-8.61-2.76c-3.17-1.29-6.11-2.94-8.82-4.96c-2.71-2.02-4.94-4.38-6.68-7.09c-1.75-2.71-2.39-5.76-1.93-9.16
			c0-1.1,0.16-2.11,0.48-3.03c0.32-0.92,0.8-1.88,1.45-2.89c1.19-1.38,2.07-2.16,2.62-2.34c0.83-0.46,2.11-0.73,3.86-0.83
			c3.31-0.46,6.52,0.41,9.64,2.62c1.84,1.29,3.97,2.62,6.41,4c2.43,1.38,5.12,2.85,8.06,4.41c3.67,1.93,6.7,0.69,9.09-3.72
			c0.64-2.48,0.9-4.89,0.76-7.23c-0.14-2.34-0.3-4.75-0.48-7.23c-5.7,2.39-11,3.91-15.91,4.55c-4.91,0.64-9.25,0.25-13.02-1.17
			c-3.77-1.42-6.89-4.06-9.37-7.92c-2.48-3.86-4.13-9.18-4.96-15.98c-0.19-1.38-0.34-3.4-0.48-6.06c-0.14-2.66-0.12-5.44,0.07-8.33
			c0.18-2.89,0.55-5.67,1.1-8.33c0.55-2.66,1.47-4.64,2.76-5.92c1.74-1.74,3.97-2.73,6.68-2.96c2.71-0.23,5.12-0.16,7.23,0.21
			c3.21,0.64,5.23,1.86,6.06,3.65c0.83,1.79,1.15,4.16,0.96,7.09c-0.18,1.38-0.41,3.19-0.69,5.44c-0.28,2.25-0.34,4.5-0.21,6.75
			c0.14,2.25,0.62,4.29,1.45,6.13c0.83,1.84,2.29,3.08,4.41,3.72c2.94,0.37,5.74-0.09,8.4-1.38c0.83-0.28,1.42-0.96,1.79-2.07
			c0.37-1.1,0.6-2.29,0.69-3.58c0.09-1.29,0.11-2.53,0.07-3.72c-0.05-1.19-0.07-2.07-0.07-2.62c0-2.11-0.02-4.25-0.07-6.41
			c-0.05-2.16,0.3-4.29,1.03-6.41c0.73-2.2,2.11-3.74,4.13-4.62c2.02-0.87,4.04-1.26,6.06-1.17c2.29,0.09,4.34,0.51,6.13,1.24
			C647.15,256.7,648.92,257.8,650.66,259.27z"/>
	</g>
</g>
</svg>
