<?xml version="1.0" encoding="utf-8"?>
<!-- Generator: Adobe Illustrator 24.1.3, SVG Export Plug-In . SVG Version: 6.00 Build 0)  -->
<svg version="1.1" xmlns="http://www.w3.org/2000/svg" xmlns:xlink="http://www.w3.org/1999/xlink" x="0px" y="0px"
	 viewBox="0 0 666.3 517.1" style="enable-background:new 0 0 666.3 517.1;" xml:space="preserve">
<style type="text/css">
	.st0{fill:#FFA072;}
	.st1{fill:#E84D4F;}
	.st2{fill:#BEF0FF;}
	.st3{fill:#C82D30;}
	.st4{fill:#6F4336;}
	.st5{fill:#FEB829;}
	.st6{fill:#FEC648;}
	.st7{fill:#FEA816;}
	.st8{fill:#E84A4D;}
	.st9{fill:#A3BBD8;}
	.st10{fill:#FEC847;}
	.st11{fill-rule:evenodd;clip-rule:evenodd;fill:#EA8B00;}
	.st12{fill-rule:evenodd;clip-rule:evenodd;fill:#FFFFFF;}
	.st13{fill:#F37B4D;}
	.st14{fill:#194AB7;}
	.st15{clip-path:url(#XMLID_4_);}
	.st16{fill:#2C63D8;}
	.st17{fill:#FFFFFF;}
	.st18{fill:#1848B7;}
	.st19{clip-path:url(#XMLID_5_);}
	.st20{fill:#FECD43;}
	.st21{fill:#FFA372;}
	.st22{fill:#F37D4E;}
	.st23{fill:none;stroke:#5E2E1E;stroke-linecap:round;stroke-miterlimit:10;}
	.st24{fill:#5E2E1E;}
	.st25{fill:#FFA800;}
	.st26{fill:none;stroke:#8ACBCF;stroke-width:1.3028;stroke-linecap:round;stroke-miterlimit:10;}
	.st27{fill:#0992A4;}
	.st28{fill:#048CA6;}
	.st29{fill:none;stroke:#8ACBCF;stroke-width:0.8685;stroke-linecap:round;stroke-miterlimit:10;}
</style>
<g id="Layer_1">
</g>
<g id="Layer_15">
	<path class="st0" d="M333,471.9c0,0-8.4-14.3-7.6-17.5c0.8-3.2,9.9-17.3,9.9-17.3l-15.6-8.9c0,0-8.2,16.4-9.9,18.2
		c-1.7,1.8-14.2,5.7-8.7,11.9c5.5,6.2,24.1,20.1,24.1,20.1s10.6,1.4,12.4-0.4s-0.9-2.4-2.1-3.2C334.2,474,333,471.9,333,471.9z"/>
</g>
<g id="Layer_14">
	<path class="st1" d="M362.4,480.8h-68.1v-5.4l19.9,0.4l4.1,0.1c3.1-7.3,13.1-18.2,14.6-15.8c0.5,0.8,2.2,2.1,4.5,3.7
		c5,3.3,12.8,7.6,18.5,9.9C364.3,477,362.4,480.8,362.4,480.8z"/>
	<path class="st2" d="M318.4,475.9c3.1-7.3,13.1-18.2,14.6-15.8c0.5,0.8,2.2,2.1,4.5,3.7c-3.4,2.9-10.3,9.1-11.3,12.4"/>
</g>
<g id="Layer_11">
	<path class="st0" d="M403.9,436.4c0,0,4.4,12.1,5.4,14.5c1,2.4,3.7,10.2,2.4,14.5c-1.3,4.3-2.3,8.5,0.3,10.5l48.9,1.5
		c0,0-8.4-8-18.3-12.1c-9.9-4.1-14.8-3.8-18-20.1c-3.2-16.3-2.4-11.5-2.4-11.5L403.9,436.4z"/>
</g>
<g id="Layer_12">
	<path class="st1" d="M472.8,480.4h-63.3c-1.3,0-2.3-1-2.3-2.3c0-1.3,1-2.3,2.3-2.3h0.1l18.8,0.5l2.6,0.1l12-15c0,0,1.3-2,3-1.3
		c0.4,0.2,2.3,1.2,4.9,2.6c7.8,4.3,21.9,12.2,21.9,12.2S477.4,478.5,472.8,480.4z"/>
</g>
<g id="Layer_13">
	<path class="st2" d="M431,476.3l12-15c0,0,1.3-2,3-1.3c0.4,0.2,2.3,1.2,4.9,2.6l-10.9,13.8"/>
</g>
<g id="Layer_9">
	<path class="st3" d="M328.7,385.5l12.8,53.5l-1.1,1.8c0,0-19.4-4.9-23.2-13.3C317.2,427.5,321.3,408,328.7,385.5z"/>
	<path class="st3" d="M379,378.6l-26.4,42.6l-3.9,6.2l-4.1,6.7l-12.9-57.4c1-2.7,2-5.4,3-8.1c1.3-3.3,2.6-6.5,4-9.7
		c0.7-1.5,1.3-3,2-4.5c1.8-3.9,3.8-7.6,5.8-11.2c1.8-3.1,3.6-6,5.6-8.7h20.6L379,378.6z"/>
</g>
<g id="Layer_8">
	<path class="st1" d="M230.8,333c0,0-24.3-13.8-22.2-30.6L316.8,277c0,0,84.2-6.9,90.7,33.6S428.8,423,428.8,423s7,12.2-4.9,13.3
		c-11.9,1.2-21,2.1-21,2.1s-38.8-82.5-37.2-101.7H233.3L230.8,333z"/>
</g>
<g id="Layer_28">
	<polygon class="st4" points="388.5,250.3 593,250.3 593,261.2 566.6,261.2 604,480.8 597,480.8 556.2,260.9 434.3,260.9 
		393.7,480.8 386.6,480.8 425.3,259.8 388.5,259.8 	"/>
</g>
<g id="Layer_24">
	<polygon class="st5" points="479,233.4 470.4,240.2 471.3,161.7 476.2,159 	"/>
</g>
<g id="Layer_26_copy">
	<path class="st3" d="M450.8,128.2c0,0-17.4,10.1-14.9,36.9h4.8c0,0-2.2-23.8,10.9-31.8L450.8,128.2z"/>
	<path class="st3" d="M458.7,138.4c0,0,0.4,21.4-1.6,28.1l5.4,1.1c0,0,2.8-18.5,1.2-29.3H458.7z"/>
</g>
<g id="Layer_23">
	<polygon class="st6" points="415.6,155.4 471.3,161.7 470.4,240.2 396.8,232.6 	"/>
</g>
<g id="Layer_25">
	<polygon class="st7" points="423.6,152.3 415.6,155.4 471.3,161.7 476.2,159 	"/>
</g>
<g id="Layer_26">
	<path class="st8" d="M444.8,128.2c0,0-17.4,10.1-14.9,36.9h4.8c0,0-2.2-23.8,10.9-31.8L444.8,128.2z"/>
	<path class="st8" d="M453.7,138.4c0,0,0.4,21.4-1.6,28.1l5.4,1.1c0,0,2.8-18.5,1.2-29.3H453.7z"/>
</g>
<g id="Layer_21">
	<path class="st0" d="M496.2,113.8c0,0-21.4,2.7-25,1c-3.6-1.7-7.8-8.2-14.7-4.6c-6.9,3.6-15.9,11.1-15.3,12.8s2.3,3.2,1.9,4.4
		c-0.4,1.1-3.4,6.9,2.9,7.8c0,0-1.7,7.6,7.1,5.7c0,0,4.2,3.1,11.5-1.5s13-8.6,13-8.6l20.3,3.1L496.2,113.8z"/>
</g>
<g id="Layer_22">
	<polygon class="st6" points="493.1,107.8 494.1,144.3 530.9,144.3 536.1,102.9 	"/>
</g>
<g id="Layer_29">
	<path class="st9" d="M512,250.3v-4.2h58.6c0,0,8.1-0.9,5.6-9s-26.6-89.4-26.6-89.4s-1.7-2.2-3-1c0,0-12.9,68.7-25,84.7h-4.3
		l21.5-179.7h3c0,0,11.7,57.7,6.1,89.5c0,0,3.6,0.4,5.5,5.1c1.9,4.6,26.9,89.6,26.9,89.6s4,9.5-5.8,14.4H512z"/>
</g>
<g id="Layer_10">
	<path class="st3" d="M344.5,434.2l-3,4.8l-12.8-53.5c0.9-2.9,1.9-5.8,3-8.7L344.5,434.2z"/>
	<polygon class="st4" points="344.5,434.2 353.1,472.4 349.1,470.5 341.5,439 	"/>
	<path class="st4" d="M365.7,480.8h-4.4L348.7,428l-14-58.8l-3.1-13.2h-4.7l4.8,21.3c-1.1,2.9-2.1,5.8-3,8.7l-7.1-30l-86.4,0
		l-30.2,124.9h-3.4L229.7,356h-5l-28.8,124.9h-4L219.1,356c0,0-10.7-0.2-9.6-13.3c0,0-9.1-0.9-10-11.5c0,0-13.3,6.8-15.7-12.6
		c-2.3-19.4-15.4-110.1-15.4-110.1s-0.7-11,9.8-11.7c0,0,10.8-2.3,12.6,7.2c1.9,9.6,17.6,119.2,17.6,119.2s-0.4,4.7-3.5,5.9
		c0,0-2.7,4.9,6.9,10.3c0,0,1.6-7,7.5-6.8c5.8,0.2,119.9,0,119.9,0s7.1-1.1,7.3,11.3c0.1,7.6-3.2,10.2-5.8,11.2
		c-1.6,0.6-2.8,0.9-2.8,0.9l0.8,3.5l13.8,62.3L365.7,480.8z"/>
</g>
<g id="Layer_7">
	<path class="st10" d="M207.7,305.5c0,0,34.4-1.4,59.8-12.2c25.4-10.8,47.5-16.3,49.2-16.3c1.7,0-2.6-7.8-2.6-7.8l-82,21.7
		l-27.3,5.9C204.9,296.8,205.6,304.3,207.7,305.5z"/>
</g>
<g id="Layer_31">
	<circle class="st11" cx="438" cy="199.1" r="22.7"/>
</g>
<g id="Layer_30">
	<path class="st12" d="M424,196.1l27.9,3.6c0.7,0.1,1.3,0.8,1.2,1.6l-0.1,0.6c-0.1,0.7-0.8,1.3-1.5,1.2l-27.9-3.6
		c-0.7-0.1-1.3-0.8-1.2-1.5l0.1-0.6C422.5,196.6,423.2,196,424,196.1z"/>
	<path class="st12" d="M433.5,187.1c0.3,0,0.4,0.3,0.4,0.8s-0.3,0.7-0.5,0.7c-0.3,0-0.5-0.3-0.4-0.8S433.2,187.1,433.5,187.1z
		 M429.7,191c0.3,0,0.4,0.4,0.4,0.8c-0.1,0.4-0.3,0.8-0.6,0.8c-0.3,0-0.4-0.4-0.3-0.9C429.3,191.3,429.5,191,429.7,191z
		 M434.6,193.2c0.3,0,0.5,0.4,0.4,0.8c-0.1,0.4-0.4,0.7-0.6,0.6c-0.2,0-0.4-0.3-0.4-0.8C434.1,193.5,434.4,193.2,434.6,193.2z
		 M435.8,189.6c0.3,0,0.4,0.4,0.4,0.8c-0.1,0.4-0.3,0.7-0.5,0.7c-0.3,0-0.4-0.3-0.4-0.8C435.3,189.9,435.5,189.6,435.8,189.6z
		 M439.9,186.9c0.3,0,0.5,0.4,0.4,0.9c0,0.4-0.4,0.7-0.6,0.6c-0.3,0-0.4-0.4-0.4-0.8C439.4,187.2,439.6,186.9,439.9,186.9z
		 M441.7,191.2c0.3,0,0.5,0.4,0.4,0.9c0,0.4-0.4,0.7-0.6,0.6c-0.3,0-0.4-0.4-0.4-0.8C441.2,191.5,441.4,191.2,441.7,191.2z
		 M439.1,193.3c0.3,0,0.4,0.4,0.4,0.8c-0.1,0.4-0.3,0.8-0.6,0.8c-0.3,0-0.5-0.4-0.4-0.9C438.6,193.6,438.9,193.3,439.1,193.3z
		 M444.7,194.5c0.3,0,0.5,0.3,0.4,0.8c-0.1,0.4-0.4,0.7-0.6,0.6c-0.3,0-0.4-0.3-0.4-0.8C444.3,194.7,444.5,194.5,444.7,194.5z
		 M445.2,188.7c0.3,0,0.4,0.4,0.4,0.8c-0.1,0.4-0.3,0.8-0.6,0.8c-0.3,0-0.5-0.4-0.4-0.9C444.6,189,444.9,188.7,445.2,188.7z
		 M448,192.9c0.3,0,0.5,0.4,0.4,0.9c0,0.4-0.4,0.7-0.6,0.6c-0.3,0-0.4-0.4-0.4-0.8C447.5,193.2,447.7,192.9,448,192.9z M437.1,185.6
		l4.7,0.6c5.2,0.7,9.1,4.9,9.6,10c0,0.4-0.1,0.8-0.4,1.1c-0.3,0.2-0.7,0.4-1.1,0.3l-23.4-3c-0.4-0.1-0.8-0.3-1-0.6
		c-0.2-0.4-0.3-0.9-0.1-1.2C427,188,431.9,184.9,437.1,185.6L437.1,185.6z"/>
	<path class="st12" d="M424.9,201.3l24.6,3.2c0.7,0.1,1.3,0.7,1.2,1.5l-0.3,2.1c-0.2,1.9-2,3.2-3.9,3l-20.5-2.7
		c-1.9-0.2-3.2-2-3-3.9l0.3-2.1C423.5,201.6,424.1,201.2,424.9,201.3L424.9,201.3z"/>
</g>
<g id="Layer_20">
	<path class="st13" d="M404.5,246.3c0,0,7.2,1.9,12.4-0.9c5.2-2.8,7.4-7.2,9.3-7.9c1.9-0.6-2.4-2.5-4.7-0.9c-2.4,1.6-9.7,6.6-11,6.9
		C409.2,243.7,404.5,246.3,404.5,246.3z"/>
</g>
<g id="Layer_19">
	<path class="st13" d="M364.3,181c0,0,3.8-5.8,5.7-7.2s13.2-4.6,14.6-5.7c1.4-1.1,3,0.2,1.7,2.2c-1.3,2-9.1,3.8-10.8,6.1
		C373.9,178.8,364.3,181,364.3,181z"/>
	<path class="st13" d="M365.5,184.9c0,0,5.2,1.1,8.5,3c3.3,1.9,10,2.3,10.4,0.5c0.3-1.8-9.4-6.6-9.4-6.6S366.6,180.4,365.5,184.9z"
		/>
	<path class="st0" d="M368.4,232.9c0,0,9.6-1.9,12.3-3.9c2.7-2,7.5-4.2,12.8-4.4s8.6-2,11.1-3.2s6.1,0,3.6,2.4
		c-2.5,2.4-15.5,11.2-14.7,12.4c0.7,1.3,7,0.8,9.8,1.4c2.8,0.6,5.5,2.2,10.8-2s8.6-5.5,9.4-4.9c0.8,0.6-8.6,10.8-11.2,13.2
		c-2.5,2.4-11.9,5.7-16.4,4.7s-20.7-5.7-25.4-2.8C365.8,248.6,368.4,232.9,368.4,232.9z"/>
</g>
<g id="Layer_18">
	<path class="st0" d="M343.4,196c0,0,11.8-7.4,15.7-12c3.9-4.6,10.6-7.5,13.1-7.5c2.6,0,14.7,9.3,15.8,11.2c1.1,1.9-3.3,1.8-8.5-1.4
		c-5.2-3.2-8.2-4.7-10.5-2.2c-2.4,2.5-8.6,9.7-6.1,9.6c2.5-0.2,14.3-0.3,16.5-0.3s7.1-1.3,7.4,0.2c0.3,1.4,0.2,3.5-7.4,5.3
		c-7.5,1.9-9.9,2-13.6,4.9s-16.9,5-20.7,4.2C341.3,207.1,343.4,196,343.4,196z"/>
</g>
<g id="Layer_17">
	<polygon class="st14" points="301.7,196 312.9,213.1 343.5,191.2 353.9,213.1 306.9,251.6 	"/>
</g>
<g id="Layer_6">
	<g>
		<defs>
			<path id="XMLID_1_" d="M204.9,296.8c0,0-22.9-82.6,66.9-163.3c32.3,26.1,32.4,25.1,32.4,25.1s2.2,106.2,10,110.7
				c0,0-52.1,16.7-61.5,19.3C243.3,291.1,212.9,301.2,204.9,296.8z"/>
		</defs>
		<use xlink:href="#XMLID_1_"  style="overflow:visible;fill:#2C63D8;"/>
		<clipPath id="XMLID_4_">
			<use xlink:href="#XMLID_1_"  style="overflow:visible;"/>
		</clipPath>
		<g class="st15">
			<g>
				<path class="st16" d="M193.9,279.6c2-11.5,7.7-22.3,16.1-30.4c4.3-4.2,9.2-7.5,14.6-10.2c5.8-2.8,12-4.9,18.1-7
					c6.1-2.1,12.3-4.4,18-7.5c5.4-3,10.3-6.8,14.4-11.4c4-4.4,7.3-9.5,9.7-14.9c0.6-1.3,1.3-2.7,1-4.2c-0.4-1.6-2-2.3-3.4-2.7
					c-3.4-1.1-6.9-1.9-10.5-2.2c-11.4-0.9-21.4,4.8-30.6,10.9c-4.5,3.1-9,6.2-13.7,9c-2.3,1.3-4.8,2.6-7.3,3.5c-2.6,1-5.5,2-8.3,2
					c-7,0-6.8-8.2-5.9-13.2c1.1-5.5,3.8-10.7,7.4-14.9c8.4-9.9,20.8-14.6,33.3-16.7c14.2-2.5,29-2.6,43.4-1.7
					c5.9,0.4,12.1,0.8,17.6-1.8c2.8-1.4,4.9-3.6,6.8-6.1c2-2.7,4-5.2,6.6-7.4c2.4-2.1,5.1-4,7.7-5.9c1.6-1.1,0.1-3.7-1.5-2.6
					c-2.7,1.9-5.5,3.9-8,6.1c-2.5,2.2-4.6,4.6-6.6,7.3c-1.9,2.5-3.8,4.9-6.8,6.2c-2.7,1.2-5.7,1.5-8.6,1.5c-3.2,0.1-6.3-0.2-9.5-0.4
					c-3.8-0.2-7.6-0.3-11.4-0.3c-7.4,0-14.8,0.3-22.2,1.2c-12.9,1.4-26.1,4.5-36.5,12.6c-8.8,6.9-16.1,18.1-15.1,29.7
					c0.2,2.7,1.1,5.6,3.2,7.5c2.4,2.1,5.5,2.3,8.5,1.9c5.4-0.8,10.6-3.4,15.3-6.1c9.4-5.5,17.7-13,27.9-16.9
					c5.7-2.2,11.6-2.8,17.6-1.7c1.8,0.3,3.5,0.8,5.3,1.3c0.5,0.2,1.9,0.3,2.2,0.8c0.4,0.5-0.2,1.5-0.5,2.1c-1.2,2.8-2.7,5.5-4.3,8
					c-3.3,5.1-7.6,9.6-12.5,13.3c-5.2,3.8-11,6.6-17,8.9c-11.9,4.5-24.6,7.7-35,15.6c-9.3,7.1-16.4,16.9-20.2,28
					c-0.9,2.8-1.7,5.6-2.2,8.5C190.7,280.7,193.6,281.5,193.9,279.6L193.9,279.6z"/>
			</g>
		</g>
		<g class="st15">
			<g>
				<path class="st17" d="M229.3,210c0,0.9,0,1.7,0,2.6c0,0.4,0.2,0.8,0.4,1.1c0.3,0.3,0.7,0.5,1.1,0.4c0.4,0,0.8-0.1,1.1-0.4
					c0.3-0.3,0.4-0.7,0.4-1.1c0-0.9,0-1.7,0-2.6c0-0.4-0.2-0.8-0.4-1.1c-0.3-0.3-0.7-0.5-1.1-0.4c-0.4,0-0.8,0.1-1.1,0.4
					C229.4,209.2,229.3,209.6,229.3,210L229.3,210z"/>
			</g>
		</g>
		<g class="st15">
			<g>
				<path class="st17" d="M241,196.9c1.9,0,1.9-3,0-3C239,193.9,239,196.9,241,196.9L241,196.9z"/>
			</g>
		</g>
		<g class="st15">
			<g>
				<path class="st17" d="M261.4,165.9c1.9,0,1.9-3,0-3C259.5,162.9,259.5,165.9,261.4,165.9L261.4,165.9z"/>
			</g>
		</g>
		<g class="st15">
			<g>
				<path class="st17" d="M274.9,146.5c1.9,0,1.9-3,0-3C273,143.5,273,146.5,274.9,146.5L274.9,146.5z"/>
			</g>
		</g>
		<g class="st15">
			<g>
				<path class="st17" d="M285.1,152.7c1.9,0,1.9-3,0-3C283.2,149.7,283.2,152.7,285.1,152.7L285.1,152.7z"/>
			</g>
		</g>
		<g class="st15">
			<g>
				<path class="st17" d="M298.2,168.1c1.9,0,1.9-3,0-3C296.3,165.1,296.3,168.1,298.2,168.1L298.2,168.1z"/>
			</g>
		</g>
		<g class="st15">
			<g>
				<path class="st17" d="M297.9,181.2c1.9,0,1.9-3,0-3C295.9,178.2,295.9,181.2,297.9,181.2L297.9,181.2z"/>
			</g>
		</g>
		<g class="st15">
			<g>
				<path class="st17" d="M298.2,197.6c1.9,0,1.9-3,0-3C296.3,194.6,296.3,197.6,298.2,197.6L298.2,197.6z"/>
			</g>
		</g>
		<g class="st15">
			<g>
				<path class="st17" d="M302.6,218c1.9,0,1.9-3,0-3C300.7,215,300.7,218,302.6,218L302.6,218z"/>
			</g>
		</g>
		<g class="st15">
			<g>
				<path class="st17" d="M304.1,202c1.9,0,1.9-3,0-3C302.1,199,302.1,202,304.1,202L304.1,202z"/>
			</g>
		</g>
		<g class="st15">
			<g>
				<path class="st17" d="M303.7,191.8c1.9,0,1.9-3,0-3C301.8,188.8,301.8,191.8,303.7,191.8L303.7,191.8z"/>
			</g>
		</g>
		<g class="st15">
			<g>
				<path class="st17" d="M303.7,184.1c1.9,0,1.9-3,0-3C301.8,181.1,301.8,184.1,303.7,184.1L303.7,184.1z"/>
			</g>
		</g>
		<g class="st15">
			<g>
				<path class="st17" d="M247.9,168.1c1.9,0,1.9-3,0-3C246,165.1,246,168.1,247.9,168.1L247.9,168.1z"/>
			</g>
		</g>
		<g class="st15">
			<g>
				<path class="st17" d="M234.8,181.6c1.9,0,1.9-3,0-3C232.8,178.6,232.8,181.6,234.8,181.6L234.8,181.6z"/>
			</g>
		</g>
		<g class="st15">
			<g>
				<path class="st17" d="M219.1,208.9c1.9,0,1.9-3,0-3C217.2,205.9,217.1,208.9,219.1,208.9L219.1,208.9z"/>
			</g>
		</g>
		<g class="st15">
			<g>
				<path class="st17" d="M212.2,244.3c1.9,0,1.9-3,0-3C210.2,241.3,210.2,244.3,212.2,244.3L212.2,244.3z"/>
			</g>
		</g>
		<g class="st15">
			<g>
				<path class="st17" d="M210.7,268.7c1.9,0,1.9-3,0-3C208.8,265.7,208.8,268.7,210.7,268.7L210.7,268.7z"/>
			</g>
		</g>
		<g class="st15">
			<g>
				<path class="st17" d="M217.6,251.2c1.9,0,1.9-3,0-3C215.7,248.2,215.7,251.2,217.6,251.2L217.6,251.2z"/>
			</g>
		</g>
		<g class="st15">
			<g>
				<path class="st17" d="M219.8,234.1c1.9,0,1.9-3,0-3C217.9,231.1,217.9,234.1,219.8,234.1L219.8,234.1z"/>
			</g>
		</g>
		<g class="st15">
			<g>
				<path class="st17" d="M230.4,233c1.9,0,1.9-3,0-3C228.5,230,228.5,233,230.4,233L230.4,233z"/>
			</g>
		</g>
		<g class="st15">
			<g>
				<path class="st17" d="M235.1,222.8c1.9,0,1.9-3,0-3C233.2,219.8,233.2,222.8,235.1,222.8L235.1,222.8z"/>
			</g>
		</g>
		<g class="st15">
			<g>
				<path class="st17" d="M240.6,208.9c1.9,0,1.9-3,0-3C238.7,205.9,238.7,208.9,240.6,208.9L240.6,208.9z"/>
			</g>
		</g>
		<g class="st15">
			<g>
				<path class="st17" d="M232.9,200.9c1.9,0,1.9-3,0-3C231,197.9,231,200.9,232.9,200.9L232.9,200.9z"/>
			</g>
		</g>
		<g class="st15">
			<g>
				<path class="st17" d="M242.1,185.2c1.9,0,1.9-3,0-3C240.1,182.2,240.1,185.2,242.1,185.2L242.1,185.2z"/>
			</g>
		</g>
		<g class="st15">
			<g>
				<path class="st17" d="M242.8,173.9c1.9,0,1.9-3,0-3C240.9,170.9,240.9,173.9,242.8,173.9L242.8,173.9z"/>
			</g>
		</g>
		<g class="st15">
			<g>
				<path class="st17" d="M257.8,156c1.9,0,1.9-3,0-3C255.8,153,255.8,156,257.8,156L257.8,156z"/>
			</g>
		</g>
		<g class="st15">
			<g>
				<path class="st17" d="M266.9,144.7c1.9,0,1.9-3,0-3C264.9,141.7,264.9,144.7,266.9,144.7L266.9,144.7z"/>
			</g>
		</g>
		<g class="st15">
			<g>
				<path class="st17" d="M235.1,239.6c1.9,0,1.9-3,0-3C233.2,236.6,233.2,239.6,235.1,239.6L235.1,239.6z"/>
			</g>
		</g>
		<g class="st15">
			<g>
				<path class="st17" d="M242.4,244.7c1.9,0,1.9-3,0-3C240.5,241.7,240.5,244.7,242.4,244.7L242.4,244.7z"/>
			</g>
		</g>
		<g class="st15">
			<g>
				<path class="st17" d="M241.3,258.5c1.9,0,1.9-3,0-3C239.4,255.5,239.4,258.5,241.3,258.5L241.3,258.5z"/>
			</g>
		</g>
		<g class="st15">
			<g>
				<path class="st17" d="M231.5,255.2c1.9,0,1.9-3,0-3C229.6,252.2,229.6,255.2,231.5,255.2L231.5,255.2z"/>
			</g>
		</g>
		<g class="st15">
			<g>
				<path class="st17" d="M219.8,280.4c1.9,0,1.9-3,0-3C217.9,277.4,217.9,280.4,219.8,280.4L219.8,280.4z"/>
			</g>
		</g>
		<g class="st15">
			<g>
				<path class="st17" d="M218,274.2c1.9,0,1.9-3,0-3C216.1,271.2,216.1,274.2,218,274.2L218,274.2z"/>
			</g>
		</g>
		<g class="st15">
			<g>
				<path class="st17" d="M207.8,290.6c1.9,0,1.9-3,0-3C205.8,287.6,205.8,290.6,207.8,290.6L207.8,290.6z"/>
			</g>
		</g>
		<g class="st15">
			<g>
				<path class="st17" d="M208.5,283.3c1.9,0,1.9-3,0-3C206.6,280.3,206.6,283.3,208.5,283.3L208.5,283.3z"/>
			</g>
		</g>
		<g class="st15">
			<g>
				<path class="st17" d="M232.2,265.5c1.9,0,1.9-3,0-3C230.3,262.5,230.3,265.5,232.2,265.5L232.2,265.5z"/>
			</g>
		</g>
		<g class="st15">
			<g>
				<path class="st17" d="M224.2,258.9c1.9,0,1.9-3,0-3C222.3,255.9,222.3,258.9,224.2,258.9L224.2,258.9z"/>
			</g>
		</g>
		<g class="st15">
			<g>
				<path class="st17" d="M218.7,262.2c1.9,0,1.9-3,0-3C216.8,259.2,216.8,262.2,218.7,262.2L218.7,262.2z"/>
			</g>
		</g>
		<g class="st15">
			<g>
				<path class="st17" d="M210,257.8c1.9,0,1.9-3,0-3C208,254.8,208,257.8,210,257.8L210,257.8z"/>
			</g>
		</g>
		<g class="st15">
			<g>
				<path class="st17" d="M212.5,228.3c1.9,0,1.9-3,0-3C210.6,225.3,210.6,228.3,212.5,228.3L212.5,228.3z"/>
			</g>
		</g>
		<g class="st15">
			<g>
				<path class="st17" d="M214.3,220.2c1.9,0,1.9-3,0-3C212.4,217.2,212.4,220.2,214.3,220.2L214.3,220.2z"/>
			</g>
		</g>
		<g class="st15">
			<g>
				<path class="st17" d="M225.3,193.2c1.9,0,1.9-3,0-3C223.4,190.2,223.4,193.2,225.3,193.2L225.3,193.2z"/>
			</g>
		</g>
		<g class="st15">
			<g>
				<path class="st17" d="M231.1,187c1.9,0,1.9-3,0-3C229.2,184,229.2,187,231.1,187L231.1,187z"/>
			</g>
		</g>
		<g class="st15">
			<g>
				<path class="st17" d="M269.1,279c1.9,0,1.9-3,0-3C267.1,276,267.1,279,269.1,279L269.1,279z"/>
			</g>
		</g>
		<g class="st15">
			<g>
				<path class="st17" d="M278.9,277.1c1.9,0,1.9-3,0-3C277,274.1,277,277.1,278.9,277.1L278.9,277.1z"/>
			</g>
		</g>
		<g class="st15">
			<g>
				<path class="st17" d="M289.5,276.8c1.9,0,1.9-3,0-3C287.6,273.8,287.6,276.8,289.5,276.8L289.5,276.8z"/>
			</g>
		</g>
		<g class="st15">
			<g>
				<path class="st17" d="M300.1,274.6c1.9,0,1.9-3,0-3C298.1,271.6,298.1,274.6,300.1,274.6L300.1,274.6z"/>
			</g>
		</g>
		<g class="st15">
			<g>
				<path class="st17" d="M309.9,273.1c1.9,0,1.9-3,0-3C308,270.1,308,273.1,309.9,273.1L309.9,273.1z"/>
			</g>
		</g>
		<g class="st15">
			<g>
				<path class="st17" d="M301.9,223.5c1.9,0,1.9-3,0-3C300,220.5,300,223.5,301.9,223.5L301.9,223.5z"/>
			</g>
		</g>
		<g class="st15">
			<g>
				<path class="st17" d="M302.3,231.5c1.9,0,1.9-3,0-3C300.3,228.5,300.3,231.5,302.3,231.5L302.3,231.5z"/>
			</g>
		</g>
		<g class="st15">
			<g>
				<path class="st17" d="M304.8,231.9c1.9,0,1.9-3,0-3C302.9,228.9,302.9,231.9,304.8,231.9L304.8,231.9z"/>
			</g>
		</g>
		<g class="st15">
			<g>
				<path class="st17" d="M299.7,174.3c1.9,0,1.9-3,0-3C297.8,171.3,297.8,174.3,299.7,174.3L299.7,174.3z"/>
			</g>
		</g>
		<g class="st15">
			<g>
				<path class="st17" d="M294.2,165.5c1.9,0,1.9-3,0-3C292.3,162.5,292.3,165.5,294.2,165.5L294.2,165.5z"/>
			</g>
		</g>
		<g class="st15">
			<g>
				<path class="st17" d="M289.5,157.1c1.9,0,1.9-3,0-3C287.6,154.1,287.6,157.1,289.5,157.1L289.5,157.1z"/>
			</g>
		</g>
		<g class="st15">
			<g>
				<path class="st17" d="M300.8,162.6c1.9,0,1.9-3,0-3C298.9,159.6,298.9,162.6,300.8,162.6L300.8,162.6z"/>
			</g>
		</g>
		<g class="st15">
			<g>
				<path class="st17" d="M281.5,157.1c1.9,0,1.9-3,0-3C279.5,154.1,279.5,157.1,281.5,157.1L281.5,157.1z"/>
			</g>
		</g>
		<g class="st15">
			<g>
				<path class="st17" d="M278.2,197.2c1.9,0,1.9-3,0-3C276.2,194.2,276.2,197.2,278.2,197.2L278.2,197.2z"/>
			</g>
		</g>
		<g class="st15">
			<g>
				<path class="st17" d="M278.2,214.4c1.9,0,1.9-3,0-3C276.2,211.4,276.2,214.4,278.2,214.4L278.2,214.4z"/>
			</g>
		</g>
		<g class="st15">
			<g>
				<path class="st17" d="M74.6,128.3c1.9,0,1.9-3,0-3C72.7,125.3,72.7,128.3,74.6,128.3L74.6,128.3z"/>
			</g>
		</g>
	</g>
</g>
<g id="Layer_27">
	<path class="st18" d="M247.8,188.4c0,0-14.4,63.8,1.3,78.4c15.7,14.6,63.6,0,63.6,0L247.8,188.4z"/>
</g>
<g id="Layer_16">
	<g>
		<defs>
			<path id="XMLID_2_" d="M267,154.8c-23.4,3.4-21.6,45-21.9,57.7s1.3,52.7,26.6,53.2s99.2-4.5,100.3-14.9
				c1.1-10.4-3.2-25.8-3.2-25.8s-58.1,8.4-69.7,7.9c0,0-4.5-56.8-6.6-60.9C290.6,167.9,285.7,152,267,154.8z"/>
		</defs>
		<use xlink:href="#XMLID_2_"  style="overflow:visible;fill:#4074E6;"/>
		<clipPath id="XMLID_5_">
			<use xlink:href="#XMLID_2_"  style="overflow:visible;"/>
		</clipPath>
		<g class="st19">
			<g>
				<path class="st17" d="M276,165.5c1.9,0,1.9-3,0-3C274.1,162.5,274.1,165.5,276,165.5L276,165.5z"/>
			</g>
		</g>
		<g class="st19">
			<g>
				<path class="st17" d="M274.9,176.8c1.9,0,1.9-3,0-3C273,173.8,273,176.8,274.9,176.8L274.9,176.8z"/>
			</g>
		</g>
		<g class="st19">
			<g>
				<path class="st17" d="M267.2,170.3c1.9,0,1.9-3,0-3C265.3,167.3,265.3,170.3,267.2,170.3L267.2,170.3z"/>
			</g>
		</g>
		<g class="st19">
			<g>
				<path class="st17" d="M259.6,179.4c1.9,0,1.9-3,0-3C257.6,176.4,257.6,179.4,259.6,179.4L259.6,179.4z"/>
			</g>
		</g>
		<g class="st19">
			<g>
				<path class="st17" d="M259.2,168.1c1.9,0,1.9-3,0-3C257.3,165.1,257.3,168.1,259.2,168.1L259.2,168.1z"/>
			</g>
		</g>
		<g class="st19">
			<g>
				<path class="st17" d="M259.9,162.6c1.9,0,1.9-3,0-3C258,159.6,258,162.6,259.9,162.6L259.9,162.6z"/>
			</g>
		</g>
		<g class="st19">
			<g>
				<path class="st17" d="M282.6,166.6c1.9,0,1.9-3,0-3C280.6,163.6,280.6,166.6,282.6,166.6L282.6,166.6z"/>
			</g>
		</g>
		<g class="st19">
			<g>
				<path class="st17" d="M279.3,175c1.9,0,1.9-3,0-3C277.3,172,277.3,175,279.3,175L279.3,175z"/>
			</g>
		</g>
		<g class="st19">
			<g>
				<path class="st17" d="M286.2,176.8c1.9,0,1.9-3,0-3C284.3,173.8,284.3,176.8,286.2,176.8L286.2,176.8z"/>
			</g>
		</g>
		<g class="st19">
			<g>
				<path class="st17" d="M289.9,182.7c1.9,0,1.9-3,0-3C287.9,179.7,287.9,182.7,289.9,182.7L289.9,182.7z"/>
			</g>
		</g>
		<g class="st19">
			<g>
				<path class="st17" d="M285.8,196.9c1.9,0,1.9-3,0-3C283.9,193.9,283.9,196.9,285.8,196.9L285.8,196.9z"/>
			</g>
		</g>
		<g class="st19">
			<g>
				<path class="st17" d="M273.1,199.1c1.9,0,1.9-3,0-3C271.1,196.1,271.1,199.1,273.1,199.1L273.1,199.1z"/>
			</g>
		</g>
		<g class="st19">
			<g>
				<path class="st17" d="M257.8,195.8c1.9,0,1.9-3,0-3C255.8,192.8,255.8,195.8,257.8,195.8L257.8,195.8z"/>
			</g>
		</g>
		<g class="st19">
			<g>
				<path class="st17" d="M254.1,184.5c1.9,0,1.9-3,0-3C252.2,181.5,252.2,184.5,254.1,184.5L254.1,184.5z"/>
			</g>
		</g>
		<g class="st19">
			<g>
				<path class="st17" d="M248.3,192.9c1.9,0,1.9-3,0-3C246.3,189.9,246.3,192.9,248.3,192.9L248.3,192.9z"/>
			</g>
		</g>
		<g class="st19">
			<g>
				<path class="st17" d="M252.6,171.7c1.9,0,1.9-3,0-3C250.7,168.7,250.7,171.7,252.6,171.7L252.6,171.7z"/>
			</g>
		</g>
		<g class="st19">
			<g>
				<path class="st17" d="M273.4,178.6c1.9,0,1.9-3,0-3C271.5,175.6,271.5,178.6,273.4,178.6L273.4,178.6z"/>
			</g>
		</g>
		<g class="st19">
			<g>
				<path class="st17" d="M269.8,188.9c1.9,0,1.9-3,0-3C267.9,185.9,267.9,188.9,269.8,188.9L269.8,188.9z"/>
			</g>
		</g>
		<g class="st19">
			<g>
				<path class="st17" d="M267.2,177.9c1.9,0,1.9-3,0-3C265.3,174.9,265.3,177.9,267.2,177.9L267.2,177.9z"/>
			</g>
		</g>
		<g class="st19">
			<g>
				<path class="st17" d="M269.8,161.1c1.9,0,1.9-3,0-3C267.9,158.1,267.9,161.1,269.8,161.1L269.8,161.1z"/>
			</g>
		</g>
		<g class="st19">
			<g>
				<path class="st17" d="M282.9,189.6c1.9,0,1.9-3,0-3C281,186.6,281,189.6,282.9,189.6L282.9,189.6z"/>
			</g>
		</g>
		<g class="st19">
			<g>
				<path class="st17" d="M277.4,181.6c1.9,0,1.9-3,0-3C275.5,178.6,275.5,181.6,277.4,181.6L277.4,181.6z"/>
			</g>
		</g>
		<g class="st19">
			<g>
				<path class="st17" d="M278.9,210c1.9,0,1.9-3,0-3C277,207,277,210,278.9,210L278.9,210z"/>
			</g>
		</g>
		<g class="st19">
			<g>
				<path class="st17" d="M263.2,205.6c1.9,0,1.9-3,0-3C261.3,202.6,261.3,205.6,263.2,205.6L263.2,205.6z"/>
			</g>
		</g>
		<g class="st19">
			<g>
				<path class="st17" d="M255.2,212.9c1.9,0,1.9-3,0-3C253.3,209.9,253.3,212.9,255.2,212.9L255.2,212.9z"/>
			</g>
		</g>
		<g class="st19">
			<g>
				<path class="st17" d="M256.3,231.2c1.9,0,1.9-3,0-3C254.4,228.2,254.4,231.2,256.3,231.2L256.3,231.2z"/>
			</g>
		</g>
		<g class="st19">
			<g>
				<path class="st17" d="M284,246.1c1.9,0,1.9-3,0-3C282.1,243.1,282.1,246.1,284,246.1L284,246.1z"/>
			</g>
		</g>
		<g class="st19">
			<g>
				<path class="st17" d="M311.4,252.3c1.9,0,1.9-3,0-3C309.4,249.3,309.4,252.3,311.4,252.3L311.4,252.3z"/>
			</g>
		</g>
		<g class="st19">
			<g>
				<path class="st17" d="M319.8,243.9c1.9,0,1.9-3,0-3C317.8,240.9,317.8,243.9,319.8,243.9L319.8,243.9z"/>
			</g>
		</g>
		<g class="st19">
			<g>
				<path class="st17" d="M328.5,251.6c1.9,0,1.9-3,0-3C326.6,248.6,326.6,251.6,328.5,251.6L328.5,251.6z"/>
			</g>
		</g>
		<g class="st19">
			<g>
				<path class="st17" d="M335.4,237.4c1.9,0,1.9-3,0-3C333.5,234.4,333.5,237.4,335.4,237.4L335.4,237.4z"/>
			</g>
		</g>
		<g class="st19">
			<g>
				<path class="st17" d="M356.2,237.4c1.9,0,1.9-3,0-3C354.3,234.4,354.3,237.4,356.2,237.4L356.2,237.4z"/>
			</g>
		</g>
		<g class="st19">
			<g>
				<path class="st17" d="M359.2,248.3c1.9,0,1.9-3,0-3C357.2,245.3,357.2,248.3,359.2,248.3L359.2,248.3z"/>
			</g>
		</g>
		<g class="st19">
			<g>
				<path class="st17" d="M368.6,249.4c1.9,0,1.9-3,0-3C366.7,246.4,366.7,249.4,368.6,249.4L368.6,249.4z"/>
			</g>
		</g>
		<g class="st19">
			<g>
				<path class="st17" d="M368.6,235.9c1.9,0,1.9-3,0-3C366.7,232.9,366.7,235.9,368.6,235.9L368.6,235.9z"/>
			</g>
		</g>
		<g class="st19">
			<g>
				<path class="st17" d="M368.6,228.3c1.9,0,1.9-3,0-3C366.7,225.3,366.7,228.3,368.6,228.3L368.6,228.3z"/>
			</g>
		</g>
		<g class="st19">
			<g>
				<path class="st17" d="M338.4,250.5c1.9,0,1.9-3,0-3C336.4,247.5,336.4,250.5,338.4,250.5L338.4,250.5z"/>
			</g>
		</g>
		<g class="st19">
			<g>
				<path class="st17" d="M297.9,244.3c1.9,0,1.9-3,0-3C295.9,241.3,295.9,244.3,297.9,244.3L297.9,244.3z"/>
			</g>
		</g>
		<g class="st19">
			<g>
				<path class="st17" d="M284.4,230.4c1.9,0,1.9-3,0-3C282.4,227.4,282.4,230.4,284.4,230.4L284.4,230.4z"/>
			</g>
		</g>
		<g class="st19">
			<g>
				<path class="st17" d="M286.6,203.8c1.9,0,1.9-3,0-3C284.6,200.8,284.6,203.8,286.6,203.8L286.6,203.8z"/>
			</g>
		</g>
		<g class="st19">
			<g>
				<path class="st17" d="M267.6,237.4c1.9,0,1.9-3,0-3C265.7,234.4,265.7,237.4,267.6,237.4L267.6,237.4z"/>
			</g>
		</g>
		<g class="st19">
			<g>
				<path class="st17" d="M257.8,247.2c1.9,0,1.9-3,0-3C255.8,244.2,255.8,247.2,257.8,247.2L257.8,247.2z"/>
			</g>
		</g>
		<g class="st19">
			<g>
				<path class="st17" d="M265.4,257.8c1.9,0,1.9-3,0-3C263.5,254.8,263.5,257.8,265.4,257.8L265.4,257.8z"/>
			</g>
		</g>
		<g class="st19">
			<g>
				<path class="st17" d="M278.5,258.9c1.9,0,1.9-3,0-3C276.6,255.9,276.6,258.9,278.5,258.9L278.5,258.9z"/>
			</g>
		</g>
		<g class="st19">
			<g>
				<path class="st17" d="M298.6,259.6c1.9,0,1.9-3,0-3C296.7,256.6,296.7,259.6,298.6,259.6L298.6,259.6z"/>
			</g>
		</g>
		<g class="st19">
			<g>
				<path class="st17" d="M313.9,258.5c1.9,0,1.9-3,0-3C312,255.5,312,258.5,313.9,258.5L313.9,258.5z"/>
			</g>
		</g>
		<g class="st19">
			<g>
				<path class="st17" d="M313.2,241c1.9,0,1.9-3,0-3C311.3,238,311.3,241,313.2,241L313.2,241z"/>
			</g>
		</g>
		<g class="st19">
			<g>
				<path class="st17" d="M304.8,238.8c1.9,0,1.9-3,0-3C302.9,235.8,302.9,238.8,304.8,238.8L304.8,238.8z"/>
			</g>
		</g>
		<g class="st19">
			<g>
				<path class="st17" d="M294.6,228.6c1.9,0,1.9-3,0-3C292.7,225.6,292.7,228.6,294.6,228.6L294.6,228.6z"/>
			</g>
		</g>
		<g class="st19">
			<g>
				<path class="st17" d="M293.9,216.6c1.9,0,1.9-3,0-3C291.9,213.6,291.9,216.6,293.9,216.6L293.9,216.6z"/>
			</g>
		</g>
		<g class="st19">
			<g>
				<path class="st17" d="M293.5,207.1c1.9,0,1.9-3,0-3C291.6,204.1,291.6,207.1,293.5,207.1L293.5,207.1z"/>
			</g>
		</g>
		<g class="st19">
			<g>
				<path class="st17" d="M292.4,189.9c1.9,0,1.9-3,0-3C290.5,186.9,290.5,189.9,292.4,189.9L292.4,189.9z"/>
			</g>
		</g>
		<g class="st19">
			<g>
				<path class="st17" d="M267.2,215.8c1.9,0,1.9-3,0-3C265.3,212.8,265.3,215.8,267.2,215.8L267.2,215.8z"/>
			</g>
		</g>
		<g class="st19">
			<g>
				<path class="st17" d="M267.2,228.3c1.9,0,1.9-3,0-3C265.3,225.3,265.3,228.3,267.2,228.3L267.2,228.3z"/>
			</g>
		</g>
		<g class="st19">
			<g>
				<path class="st17" d="M274.5,221c1.9,0,1.9-3,0-3C272.6,218,272.6,221,274.5,221L274.5,221z"/>
			</g>
		</g>
		<g class="st19">
			<g>
				<path class="st17" d="M258.1,222.4c1.9,0,1.9-3,0-3C256.2,219.4,256.2,222.4,258.1,222.4L258.1,222.4z"/>
			</g>
		</g>
		<g class="st19">
			<g>
				<path class="st17" d="M247.2,222.4c1.9,0,1.9-3,0-3C245.2,219.4,245.2,222.4,247.2,222.4L247.2,222.4z"/>
			</g>
		</g>
		<g class="st19">
			<g>
				<path class="st17" d="M273.8,235.5c1.9,0,1.9-3,0-3C271.9,232.5,271.9,235.5,273.8,235.5L273.8,235.5z"/>
			</g>
		</g>
		<g class="st19">
			<g>
				<path class="st17" d="M272.3,252c1.9,0,1.9-3,0-3C270.4,249,270.4,252,272.3,252L272.3,252z"/>
			</g>
		</g>
		<g class="st19">
			<g>
				<path class="st17" d="M275.3,244.7c1.9,0,1.9-3,0-3C273.3,241.7,273.3,244.7,275.3,244.7L275.3,244.7z"/>
			</g>
		</g>
		<g class="st19">
			<g>
				<path class="st17" d="M284.7,218.8c1.9,0,1.9-3,0-3C282.8,215.8,282.8,218.8,284.7,218.8L284.7,218.8z"/>
			</g>
		</g>
		<g class="st19">
			<g>
				<path class="st17" d="M285.8,237.7c1.9,0,1.9-3,0-3C283.9,234.7,283.9,237.7,285.8,237.7L285.8,237.7z"/>
			</g>
		</g>
		<g class="st19">
			<g>
				<path class="st17" d="M289.5,246.1c1.9,0,1.9-3,0-3C287.6,243.1,287.6,246.1,289.5,246.1L289.5,246.1z"/>
			</g>
		</g>
		<g class="st19">
			<g>
				<path class="st17" d="M289.5,257.1c1.9,0,1.9-3,0-3C287.6,254.1,287.6,257.1,289.5,257.1L289.5,257.1z"/>
			</g>
		</g>
		<g class="st19">
			<g>
				<path class="st17" d="M284,262.5c1.9,0,1.9-3,0-3C282.1,259.5,282.1,262.5,284,262.5L284,262.5z"/>
			</g>
		</g>
		<g class="st19">
			<g>
				<path class="st17" d="M303.3,247.9c1.9,0,1.9-3,0-3C301.4,244.9,301.4,247.9,303.3,247.9L303.3,247.9z"/>
			</g>
		</g>
		<g class="st19">
			<g>
				<path class="st17" d="M303.7,257.8c1.9,0,1.9-3,0-3C301.8,254.8,301.8,257.8,303.7,257.8L303.7,257.8z"/>
			</g>
		</g>
		<g class="st19">
			<g>
				<path class="st17" d="M322,257.8c1.9,0,1.9-3,0-3C320,254.8,320,257.8,322,257.8L322,257.8z"/>
			</g>
		</g>
		<g class="st19">
			<g>
				<path class="st17" d="M327.8,242.8c1.9,0,1.9-3,0-3C325.9,239.8,325.9,242.8,327.8,242.8L327.8,242.8z"/>
			</g>
		</g>
		<g class="st19">
			<g>
				<path class="st17" d="M326.7,235.5c1.9,0,1.9-3,0-3C324.8,232.5,324.8,235.5,326.7,235.5L326.7,235.5z"/>
			</g>
		</g>
		<g class="st19">
			<g>
				<path class="st17" d="M317.6,235.2c1.9,0,1.9-3,0-3C315.6,232.2,315.6,235.2,317.6,235.2L317.6,235.2z"/>
			</g>
		</g>
		<g class="st19">
			<g>
				<path class="st17" d="M344.9,234.1c1.9,0,1.9-3,0-3C343,231.1,343,234.1,344.9,234.1L344.9,234.1z"/>
			</g>
		</g>
		<g class="st19">
			<g>
				<path class="st17" d="M342.7,241.7c1.9,0,1.9-3,0-3C340.8,238.7,340.8,241.7,342.7,241.7L342.7,241.7z"/>
			</g>
		</g>
		<g class="st19">
			<g>
				<path class="st17" d="M348.6,241c1.9,0,1.9-3,0-3C346.7,238,346.6,241,348.6,241L348.6,241z"/>
			</g>
		</g>
		<g class="st19">
			<g>
				<path class="st17" d="M347.9,255.2c1.9,0,1.9-3,0-3C345.9,252.2,345.9,255.2,347.9,255.2L347.9,255.2z"/>
			</g>
		</g>
		<g class="st19">
			<g>
				<path class="st17" d="M354.8,256.7c1.9,0,1.9-3,0-3C352.9,253.7,352.8,256.7,354.8,256.7L354.8,256.7z"/>
			</g>
		</g>
		<g class="st19">
			<g>
				<path class="st17" d="M354.4,247.9c1.9,0,1.9-3,0-3C352.5,244.9,352.5,247.9,354.4,247.9L354.4,247.9z"/>
			</g>
		</g>
		<g class="st19">
			<g>
				<path class="st17" d="M337.6,259.6c1.9,0,1.9-3,0-3C335.7,256.6,335.7,259.6,337.6,259.6L337.6,259.6z"/>
			</g>
		</g>
		<g class="st19">
			<g>
				<path class="st17" d="M353,229.7c1.9,0,1.9-3,0-3C351,226.7,351,229.7,353,229.7L353,229.7z"/>
			</g>
		</g>
		<g class="st19">
			<g>
				<path class="st17" d="M362.1,229.3c1.9,0,1.9-3,0-3C360.1,226.3,360.1,229.3,362.1,229.3L362.1,229.3z"/>
			</g>
		</g>
		<g class="st19">
			<g>
				<path class="st17" d="M362.4,235.9c1.9,0,1.9-3,0-3C360.5,232.9,360.5,235.9,362.4,235.9L362.4,235.9z"/>
			</g>
		</g>
		<g class="st19">
			<g>
				<path class="st17" d="M362.4,247.2c1.9,0,1.9-3,0-3C360.5,244.2,360.5,247.2,362.4,247.2L362.4,247.2z"/>
			</g>
		</g>
		<g class="st19">
			<g>
				<path class="st17" d="M362.4,253.8c1.9,0,1.9-3,0-3C360.5,250.8,360.5,253.8,362.4,253.8L362.4,253.8z"/>
			</g>
		</g>
	</g>
</g>
<g id="Layer_5">
	<path class="st20" d="M278.8,132c0,0-8.1-5.8-6.9,1.5c1.2,7.2,23.1,23.4,32.3,26.1c0,0,2.3-11.9,0-14.2S278.8,132,278.8,132z"/>
</g>
<g id="Layer_4">
	<path class="st21" d="M312.9,134.3c0,0-10.8,9.9-11.2,15.9c0,0-3-0.7-8.2-3.8c-4.5-2.6-10.5-7-17.7-14.2c0,0,12.8-7.4,15.2-16.6
		c0.1-0.4,0.3-0.8,0.5-1.1C295.2,109,312.9,134.3,312.9,134.3z"/>
	<path class="st22" d="M312.9,134.3c0,0-10.8,9.9-11.2,15.9c0,0-3-0.7-8.2-3.8c0,0-0.6-23.7-2-31.8
		C295.2,109,312.9,134.3,312.9,134.3z"/>
</g>
<g id="Layer_3">
	<path class="st0" d="M340.8,90.1c0,0,0.2,15-2.4,21.6c-2.6,6.6,1.2,9.9,1.2,9.9s-2.3,2-5.8,0c0,0-2.5,2.4-1.7,4.2
		c0.8,1.8-3.8,0.9-6-0.8c-2.3-1.7-3.2,0.3-2.3,1.7c0.9,1.4,5.6,3.7,4.5,4.9s-2.4-0.2-2.4,0.9s1.1,6.5-3.2,5.9
		c-4.2-0.6-24.6-12.1-26.4-13.7c-1.8-1.7-5.7-3.8-5.3-9c0.5-5.3,5.3-34.7,21-34.8S340.8,90.1,340.8,90.1z"/>
</g>
<g id="Layer_33">
	<path class="st23" d="M328.3,103.6c0,0,6.4-1.9,7,2.8"/>
	<ellipse transform="matrix(0.422 -0.9066 0.9066 0.422 92.9354 364.1321)" class="st24" cx="332" cy="109.2" rx="2.1" ry="1.2"/>
	<g>
		<path class="st25" d="M179.9,481.1h-29.3c-5.6,0-10.1-4.5-10.1-10.1l0.4-37.1h49.5L190,471C190,476.6,185.4,481.1,179.9,481.1z"/>
		<path class="st26" d="M162.9,433.9c0,0-14.6-108.2-40.5-143.2"/>
		<path class="st26" d="M170.3,433.9c0,0,9.8-80.9,25.8-98.1"/>
		<path class="st26" d="M131.1,345.2c0,0,14.3,7.3,18.5,18.3"/>
		<path class="st27" d="M261.2,269.7c-10.8-14-63.5-0.3-65.1,66.1C196.1,335.9,280.9,295.2,261.2,269.7z"/>
		<path class="st28" d="M188.6,264.8c-9.1-8.8-54.5,13-44.5,76.3C144.1,341,210.2,285.6,188.6,264.8z"/>
		<path class="st27" d="M60.2,213.6c-16.8,9.8,1,37.7,62.2,77.1C122.4,290.7,105.9,186.9,60.2,213.6z"/>
		<path class="st27" d="M36.9,345.2c-0.7,23.9,30.3,24.8,94.2,0C131.1,345.2,38.5,290.1,36.9,345.2z"/>
		<path class="st27" d="M156.4,396.1c0,0-13.7-23.3-32.5-22.5c-18.8,0.9-40.3,15.3-25.3,18.2C113.7,394.7,148.1,391.5,156.4,396.1z"
			/>
		<path class="st27" d="M178.7,384.9c0,0,32.8-46.7,60.3-32s-7.3,18.8-17.7,20.8C210.8,375.7,183.3,379.7,178.7,384.9z"/>
		<path class="st29" d="M57.6,215.5c0,0,49,24.4,64.8,75.2"/>
		<path class="st29" d="M104.1,255.5c0,0-22.8,4.8-37.3-8.7"/>
		<path class="st29" d="M99.7,250c0,0,3.8-17.8,0-23.5"/>
		<path class="st29" d="M112.9,269c0,0,2.7-7.6,0.9-12.7"/>
		<path class="st29" d="M144.1,341c0,0,9.8-64.5,44.5-76.3"/>
		<path class="st29" d="M174.4,310.7c0,0-6-12.8-19-8.7"/>
		<path class="st29" d="M187.6,292.1c0,0-13.5-11.8-28.7,2.5"/>
		<path class="st29" d="M196.1,335.9c0,0,16.5-38.7,42.1-49.7c0,0-1.8-15.3,12.8-21.2"/>
		<path class="st29" d="M226.4,271.8c0,0-6.2,17.1-1.4,22.8"/>
		<path class="st29" d="M260.8,288.5c0,0-20.3,9.6-28.6,0.7"/>
		<path class="st29" d="M237.7,311.1c0,0-19,1-21.1-8"/>
		<path class="st29" d="M203.7,299.1c0,0-2.9,17.7,3.4,16.7"/>
		<path class="st29" d="M48.1,348.5c0,0,38.4-18.3,83-3.2"/>
		<path class="st29" d="M41,330c0,0,24.3-4.5,24.8,12.1"/>
		<path class="st29" d="M56,363.3c0,0,16.1-5.9,20.9-22.8"/>
		<path class="st29" d="M88.3,325.7c0,0,5.7,3.3,5.2,13.6"/>
		<path class="st29" d="M248,359.5c0,0-44.5-1.9-69.4,25.4"/>
	</g>
</g>
<g id="Layer_2">
	<path class="st24" d="M292.6,61.5c0,0-2.9,6.9,0,9.8c0,0-11.4,4.5-8.2,14.9c3.2,10.4,4.5,20.2-0.6,23.1s7.2,11.7,12,10.9
		c4.8-0.8,6.9-10.4,6.1-11.7c-0.8-1.3-4.2-9.7,4.2-13.2s10.4,7.5,9,11.5c-1.3,4,5.3,2.6,5.3,2.6s1.8-14.8,7.5-16.1
		c5.7-1.3,23.4,1.5,22.9-13.2c0,0-10.6,3.5-10.6-2.9s-6.4-7.7-6.4-7.7s-1.1-13.2-13.4-6.4c0,0-5.5-10.1-12.1-6.4
		C301.7,60.5,295.2,67.3,292.6,61.5z"/>
</g>
</svg>
